<svg width="200" height="400" viewBox="0 0 200 400" xmlns="http://www.w3.org/2000/svg">
  <!-- Wine bottle outline -->
  <path d="M100,40 C120,40 130,50 130,70 L130,120 C130,140 140,150 140,170 L140,300 C140,330 120,360 100,380 C80,360 60,330 60,300 L60,170 C60,150 70,140 70,120 L70,70 C70,50 80,40 100,40 Z" fill="#FFFFFF" stroke="#1C1C1C" stroke-width="2"/>
  
  <!-- Wine bottle neck -->
  <rect x="90" y="20" width="20" height="20" fill="#FFFFFF" stroke="#1C1C1C" stroke-width="2" />
  
  <!-- Wine liquid -->
  <path d="M100,170 C120,170 130,180 130,200 L130,300 C130,330 120,340 100,350 C80,340 70,330 70,300 L70,200 C70,180 80,170 100,170 Z" fill="#9B2C3B" opacity="0.7"/>
  
  <!-- Label -->
  <rect x="80" y="220" width="40" height="60" fill="#ECAA4D" stroke="#1C1C1C" stroke-width="1" />
  <text x="100" y="250" text-anchor="middle" font-family="Arial" font-size="12" fill="#1C1C1C">WINE</text>
</svg>